<?xml version="1.0" encoding="UTF-8" standalone="no"?>
<!-- Created with Inkscape (http://www.inkscape.org/) -->

<svg
   xmlns:dc="http://purl.org/dc/elements/1.1/"
   xmlns:cc="http://creativecommons.org/ns#"
   xmlns:rdf="http://www.w3.org/1999/02/22-rdf-syntax-ns#"
   xmlns:svg="http://www.w3.org/2000/svg"
   xmlns="http://www.w3.org/2000/svg"
   xmlns:sodipodi="http://sodipodi.sourceforge.net/DTD/sodipodi-0.dtd"
   xmlns:inkscape="http://www.inkscape.org/namespaces/inkscape"
   width="118.75349mm"
   height="134.49829mm"
   viewBox="0 0 420.7801 476.56875"
   id="svg2"
   version="1.1"
   inkscape:version="0.91 r13725"
   sodipodi:docname="icon.svg">
  <defs
     id="defs4" />
  <sodipodi:namedview
     id="base"
     pagecolor="#ffffff"
     bordercolor="#666666"
     borderopacity="1.0"
     inkscape:pageopacity="0.0"
     inkscape:pageshadow="2"
     inkscape:zoom="0.70710678"
     inkscape:cx="626.96617"
     inkscape:cy="150.20689"
     inkscape:document-units="px"
     inkscape:current-layer="layer1"
     showgrid="false"
     fit-margin-top="0"
     fit-margin-left="0"
     fit-margin-right="0"
     fit-margin-bottom="0"
     inkscape:window-width="1920"
     inkscape:window-height="997"
     inkscape:window-x="0"
     inkscape:window-y="0"
     inkscape:window-maximized="1" />
  <metadata
     id="metadata7">
    <rdf:RDF>
      <cc:Work
         rdf:about="">
        <dc:format>image/svg+xml</dc:format>
        <dc:type
           rdf:resource="http://purl.org/dc/dcmitype/StillImage" />
        <dc:title></dc:title>
      </cc:Work>
    </rdf:RDF>
  </metadata>
  <g
     inkscape:label="Layer 1"
     inkscape:groupmode="layer"
     id="layer1"
     transform="translate(-181.74059,-247.14468)">
    <path
       style="fill:#bebebe"
       d="m 343.87699,695.35862 c -1.82114,-0.83596 -8.34529,-3.85703 -14.49812,-6.71349 -6.15282,-2.85646 -22.66337,-10.41886 -36.69011,-16.80532 -33.65156,-15.32179 -47.93357,-22.51431 -63.33283,-31.89487 -28.56921,-17.40313 -44.47335,-35.35191 -47.24672,-53.32077 -2.11621,-13.71108 5.10226,-34.25378 15.92907,-45.33178 7.60059,-7.77693 13.26592,-9.88093 32.94822,-12.23636 30.78566,-3.23959 60.09248,-17.86291 86.69497,-27.52028 18.4034,-6.48376 29.43414,-31.03877 48.55322,-27.3928 30.62753,5.8406 62.24431,25.05398 80.645,42.92282 8.55075,8.3036 4.79352,49.40941 11.18617,70.45497 16.56625,46.09158 63.23862,114.31547 15.92454,132.11086 -28.08002,8.87169 -64.16881,3.36907 -113.8806,-17.36391 -7.1069,-2.96403 -14.41166,-6.07312 -16.23281,-6.90907 z M 524.645,639.22403 c -13.66791,-9.18331 -26.97906,-26.32262 -35.43094,-45.62057 -9.47488,-21.63373 -12.34847,-41.72054 -8.4928,-59.3658 4.51773,-20.67514 20.88432,-37.47139 46.43544,-47.65448 9.2723,-3.69535 16.3854,-5.55136 24.4037,-6.36762 18.4058,-1.87371 32.4664,2.62238 40.9472,13.09349 3.8978,4.81261 7.6229,14.83966 8.9358,24.05337 2.4249,17.0173 0.7343,37.55947 -4.8512,58.94585 -2.4162,9.25137 -9.0806,26.78644 -13.035,34.29725 -11.4816,21.8072 -25.1131,34.25274 -38.5981,35.24009 -4.5059,0.32992 -4.8274,0.26803 -10.9355,-2.1043 -3.6835,-1.43065 -7.5726,-3.30387 -9.3786,-4.51728 z M 202.60609,490.18265 c -18.34039,-13.79137 -19.3254,-47.64542 -2.48302,-85.33954 13.88132,-31.06713 34.80607,-53.54696 53.90876,-57.91516 12.01354,-2.74713 21.92889,1.58948 33.42534,14.61903 12.7899,14.49547 20.48751,33.49455 22.12759,54.61482 1.89176,24.36125 -5.72716,45.41049 -21.45015,59.26162 -18.50187,16.29918 -46.78789,25.32257 -68.25635,21.77414 -5.02402,-0.8304 -13.77317,-4.38377 -17.27217,-7.01491 z m 162.62469,-78.74307 c -26.91803,-16.47592 -44.66833,-55.22577 -39.07185,-85.29596 4.50857,-24.22485 26.24595,-52.18299 52.8588,-67.98585 17.38309,-10.32217 36.93065,-13.7528 49.77781,-8.73611 5.79126,2.26144 10.64362,8.88721 15.74274,21.49627 6.55532,16.20996 9.7601,33.44003 8.86611,47.66737 -0.7454,11.86255 -2.39081,18.51851 -7.94537,32.14038 -4.02375,9.8678 -5.64853,13.21607 -10.53437,21.70898 -20.81083,36.17489 -34.47791,48.0639 -52.24148,45.4449 -5.43568,-0.80142 -12.4977,-3.40733 -17.45239,-6.43998 z m 100.26381,35.77858 c -11.08927,-7.06047 -15.6473,-15.02983 -16.65863,-29.12631 -0.73264,-10.21182 0.78175,-21.07881 5.79015,-41.54898 5.73713,-23.44867 12.52092,-37.74178 23.92849,-50.41622 12.65756,-14.06325 39.63298,-28.81707 57.3387,-31.36058 6.3719,-0.91535 10.5067,-0.4205 14.7388,1.7639 11.4663,5.91842 21.1191,17.10888 27.7546,32.17601 8.4735,19.24073 11.285,44.22038 7.4269,65.98815 -0.8903,5.02304 -1.6779,7.45705 -5.1865,16.02849 -4.5577,11.13452 -6.2083,13.76235 -12.8348,20.43514 -18.4207,18.54902 -53.14415,28.60022 -81.60644,23.62211 -4.86252,-0.85047 -17.27527,-5.38675 -20.69127,-7.56171 z"
       id="path4244"
       inkscape:connector-curvature="0"
       sodipodi:nodetypes="ssssssccssccssssssssssssssssssssssssssssssssssssssssssss" />
  </g>
</svg>
